<svg xmlns="http://www.w3.org/2000/svg" viewBox="0 0 82.4 54.2"><defs><style>.cls-1{fill:#31cffe}</style></defs><g id="Layer_2" data-name="Layer 2"><g id="Layer_1-2" data-name="Layer 1"><path class="cls-1" d="M77.9 20.2c-.6 1.8-1 3.7-1.8 5.5a15.5 15.5 0 0 1-2.4 4.5c-.3.4-.7 1-1.3.7s-.6-.9-.6-1.4a24.5 24.5 0 0 1 .6-4.5l1.1-5.1c.2-.7 0-1.2-.7-1.4a3.2 3.2 0 0 0-4.1 2.3 28.9 28.9 0 0 0-1.5 7 5.2 5.2 0 0 1-4.3 4.6 2.5 2.5 0 0 1-2.4-4A51.4 51.4 0 0 0 68 13.9a19.3 19.3 0 0 0 .8-10c-.8-4-4.3-5-7.2-2.3a13 13 0 0 0-3 4.5 49.5 49.5 0 0 0-3.9 22.1c0 .4.2.8-.1 1.1-1.2 1.3-2.3 2.8-4.2 3.1a2.5 2.5 0 0 1-2.6-3.9 50.2 50.2 0 0 0 7.6-15c1-3.3 1.7-6.6.7-10s-4.2-4.4-7-2a10 10 0 0 0-2.4 3.2 46.8 46.8 0 0 0-4.6 23.6 1.5 1.5 0 0 1-.2 1.2 16.7 16.7 0 0 1-2.5 2.4c-1.3 1-2.2.6-2.4-1a12 12 0 0 1 .3-3.6l1.3-6.6c0-.7.2-1.4-.6-2a2.9 2.9 0 0 0-4 1.4 30.6 30.6 0 0 0-1.8 11c.1 2 .5 4.3 2.7 5.3s4.4.2 6.3-1.2l2.2-2c0 .3.2.5.4.7a5.7 5.7 0 0 0 6.4 2.8 9.2 9.2 0 0 0 5-2.9c.6-.6.8-.5 1.3.2a5.3 5.3 0 0 0 5 2.8 8.2 8.2 0 0 0 5.2-2c.4-.3.7-.6 1.2 0 1.7 2.6 4.1 2.7 6.2.4l1.4-2c.2 2 0 2.7-1.4 3.8a47.9 47.9 0 0 0-5 4.6 14.3 14.3 0 0 0-3.8 5.6c-.8 2.9-.5 6 3 7v.2h1.7c3.6-1 5.3-3.7 6.5-6.8a68.4 68.4 0 0 0 3.6-15l2-11.6c0-.2 0-.4.2-.5v-1.2a2.7 2.7 0 0 0-4.5 1zM50.4 5.6c.3-.7.5-1.8 1.6-1.5s.8 1.3.8 2c.2 4.8-1.4 9.2-3.4 13.4a20.7 20.7 0 0 1-2.4 4.2c.3-6.2 1-12.3 3.4-18zm12.6.1c.3-.7.6-1.8 1.5-1.7s.8 1.2.9 2a18.2 18.2 0 0 1-.8 6.5 39.8 39.8 0 0 1-5 11.1zM74.3 41a17.8 17.8 0 0 1-3.1 8.5c-.4.5-.9 1-1.5.7s-.7-1-.7-1.5a5.4 5.4 0 0 1 .8-2.6 16.3 16.3 0 0 1 4.5-5zM28.3 4.8a12.8 12.8 0 0 0-3.5-1.2A36.3 36.3 0 0 0 6.6 5.1 18.5 18.5 0 0 0 1 8a3 3 0 0 0-.7 3.4c.5.8 1.5.9 2.9.2l.2-.2a29.2 29.2 0 0 1 16-3.8A11.4 11.4 0 0 1 24.9 9a4 4 0 0 1 .9 6.6 9.5 9.5 0 0 1-5.5 2.5c-1.2.2-2.4.2-3.6.5s-1.6 1.3-1.5 2.7c.1 1.2.9 1.2 1.7 1.3a10.8 10.8 0 0 1 3.3.6 3.8 3.8 0 0 1 1.4 6.4 6.7 6.7 0 0 1-2.7 1.7 21.6 21.6 0 0 1-8.8.8c-.5 0-.7-.2-.6-.8l.8-5.8a84.4 84.4 0 0 1 2.6-11.6c.2-.7.4-1.5-.3-2-1.5-1.2-4.7-.2-5.2 1.7A115.7 115.7 0 0 0 3.5 36a2.1 2.1 0 0 0 .8 1.9c1.3 1 4 .3 4.8-1.1.2-.4.3-.7.8-.6a25.4 25.4 0 0 0 6.1-.1 18.5 18.5 0 0 0 9.5-3.3c3.7-2.7 5.2-9.9-1.1-12l-.1-.2a15.2 15.2 0 0 0 5.1-2.3 7.8 7.8 0 0 0-1-13.6z"/><path class="cls-1" d="M37.4 15.9c2.3 0 3.7-1.2 3.7-3.3 0-1.8-1.1-2.8-3.2-2.8s-3.7 1.4-3.7 3.2 1 2.9 3.2 2.9z"/></g></g></svg>